<svg width="44" height="34" viewBox="0 0 44 34" fill="none" xmlns="http://www.w3.org/2000/svg">
<g id="Group">
<path id="Vector" d="M10.8782 0.936687C7.89424 0.936687 5.33522 2.146 3.20113 4.56464C1.06704 6.98327 0 9.88349 0 13.2653V33.813H18.1303V13.2653H3.62606C3.62606 10.9965 4.33428 9.05945 5.75071 7.45416C7.16714 5.84887 8.8763 5.04622 10.8782 5.04622V0.936687ZM36.2606 0.936687C33.2767 0.936687 30.7177 2.146 28.5836 4.56464C26.4495 6.98327 25.3824 9.88349 25.3824 13.2653V33.813H43.5127V13.2653H29.0085C29.0085 10.9965 29.7167 9.05945 31.1331 7.45416C32.5496 5.84887 34.2587 5.04622 36.2606 5.04622V0.936687ZM3.62606 17.3748H14.5042V29.7035H3.62606V17.3748ZM29.0085 17.3748H39.8867V29.7035H29.0085V17.3748Z" fill="#3D75C3"/>
</g>
</svg>
