<svg width="71" height="70" viewBox="0 0 71 70" fill="none" xmlns="http://www.w3.org/2000/svg">
<rect x="0.97998" width="70" height="70" rx="4" fill="#F1F8FF"/>
<path opacity="0.5" d="M29.5312 26.375H18.0312C16.4434 26.375 15.1562 27.6622 15.1562 29.25V40.75C15.1562 42.3378 16.4434 43.625 18.0312 43.625H29.5312C31.1191 43.625 32.4062 42.3378 32.4062 40.75V29.25C32.4062 27.6622 31.1191 26.375 29.5312 26.375Z" fill="#00AEEE"/>
<path d="M49.0667 30.2275C48.4951 30.2269 47.947 29.9994 47.543 29.5949L46.0192 28.0712C45.9519 28.0044 45.8984 27.9249 45.8619 27.8373C45.8254 27.7497 45.8066 27.6558 45.8066 27.5609C45.8066 27.466 45.8254 27.3721 45.8619 27.2845C45.8984 27.1969 45.9519 27.1174 46.0192 27.0506L49.0667 24.0031C49.2014 23.8692 49.3836 23.7941 49.5735 23.7941C49.7633 23.7941 49.9455 23.8692 50.0802 24.0031L51.6039 25.5268C52.0077 25.9311 52.2345 26.4792 52.2345 27.0506C52.2345 27.622 52.0077 28.17 51.6039 28.5743L50.5905 29.5949C50.1865 29.9994 49.6384 30.2269 49.0667 30.2275ZM47.543 27.5609L48.5564 28.5743C48.6911 28.7082 48.8733 28.7833 49.0632 28.7833C49.253 28.7833 49.4352 28.7082 49.5699 28.5743L50.5905 27.5609C50.7244 27.4262 50.7995 27.2441 50.7995 27.0542C50.7995 26.8643 50.7244 26.6821 50.5905 26.5475L49.5699 25.5268L47.543 27.5609Z" fill="#3D75C3"/>
<path d="M53.1279 31.8375C52.9394 31.8367 52.7587 31.7618 52.6248 31.6291L50.0804 29.0847C49.9466 28.95 49.8714 28.7679 49.8714 28.578C49.8714 28.3881 49.9466 28.2059 50.0804 28.0713C50.1473 28.0039 50.2268 27.9504 50.3143 27.9139C50.4019 27.8774 50.4959 27.8586 50.5908 27.8586C50.6856 27.8586 50.7796 27.8774 50.8672 27.9139C50.9548 27.9504 51.0342 28.0039 51.1011 28.0713L53.6383 30.6084C53.7396 30.709 53.8087 30.8374 53.8368 30.9774C53.8649 31.1174 53.8507 31.2625 53.7959 31.3944C53.7412 31.5262 53.6484 31.6388 53.5294 31.7177C53.4105 31.7966 53.2707 31.8383 53.1279 31.8375ZM44.9989 29.2069C44.4282 29.2083 43.8803 28.9834 43.4751 28.5816L38.3936 23.5C37.9946 23.093 37.671 22.6184 37.4376 22.0984C37.074 21.3318 36.9101 20.4857 36.9613 19.6387C37.0125 18.7918 37.277 17.9715 37.7303 17.2543C38.1836 16.537 38.811 15.946 39.554 15.5363C40.2971 15.1266 41.1316 14.9115 41.9801 14.9109C42.6352 14.9055 43.285 15.0297 43.8919 15.2764C44.4988 15.5231 45.0509 15.8874 45.5164 16.3484L50.5979 21.4372C51.0024 21.8412 51.2299 22.3893 51.2304 22.9609C51.2299 23.5326 51.0024 24.0807 50.5979 24.4847L46.5298 28.5456C46.3313 28.752 46.0937 28.9167 45.8309 29.0302C45.568 29.1438 45.2852 29.2038 44.9989 29.2069ZM41.937 16.3484C41.228 16.3514 40.5357 16.5641 39.9473 16.9596C39.3588 17.3551 38.9006 17.9159 38.6301 18.5713C38.3596 19.2267 38.2891 19.9475 38.4273 20.6429C38.5656 21.3383 38.9064 21.9772 39.407 22.4794L44.4886 27.5609C44.5554 27.6283 44.6349 27.6818 44.7225 27.7183C44.81 27.7548 44.904 27.7735 44.9989 27.7735C45.0938 27.7735 45.1877 27.7548 45.2753 27.7183C45.3629 27.6818 45.4424 27.6283 45.5092 27.5609L49.5701 23.5C49.7056 23.3673 49.7831 23.1865 49.7858 22.9969C49.7854 22.9018 49.7661 22.8077 49.7291 22.7201C49.6921 22.6325 49.638 22.5531 49.5701 22.4866L44.4886 17.3978C44.1595 17.0652 43.7677 16.8011 43.3359 16.621C42.9041 16.4409 42.4408 16.3482 41.9729 16.3484H41.937Z" fill="#3D75C3"/>
<path d="M37.883 30.8241C37.7879 30.8237 37.6939 30.8044 37.6063 30.7674C37.5187 30.7304 37.4393 30.6764 37.3727 30.6085L34.3252 27.561C34.1914 27.4263 34.1162 27.2441 34.1162 27.0542C34.1162 26.8644 34.1914 26.6822 34.3252 26.5475L38.3933 22.4794C38.528 22.3455 38.7102 22.2704 38.9001 22.2704C39.0899 22.2704 39.2721 22.3455 39.4068 22.4794L42.4687 25.5269C42.5353 25.5941 42.588 25.6737 42.6237 25.7613C42.6595 25.8488 42.6776 25.9426 42.6771 26.0372C42.6744 26.2275 42.6 26.4098 42.4687 26.5475L38.4005 30.6085C38.3331 30.6772 38.2526 30.7318 38.1637 30.7688C38.0748 30.8058 37.9793 30.8246 37.883 30.8241ZM35.849 27.0506L37.883 29.0847L40.9305 26.0372L38.8749 24.0031L35.849 27.0506Z" fill="#3D75C3"/>
<path d="M23.1489 46.1047C22.2959 46.1053 21.4619 45.853 20.7523 45.3797C20.0427 44.9063 19.4894 44.2331 19.1624 43.4453C18.8355 42.6575 18.7495 41.7904 18.9153 40.9537C19.0812 40.1169 19.4914 39.3482 20.0942 38.7447L32.313 26.5259C32.5133 26.3249 32.7513 26.1654 33.0134 26.0566C33.2755 25.9477 33.5565 25.8917 33.8403 25.8917C34.1241 25.8917 34.4051 25.9477 34.6672 26.0566C34.9293 26.1654 35.1673 26.3249 35.3677 26.5259L38.4152 29.5734C38.8189 29.9777 39.0458 30.5258 39.0458 31.0972C39.0458 31.6686 38.8189 32.2166 38.4152 32.6209L26.1964 44.8397C25.3884 45.6487 24.2923 46.1037 23.1489 46.1047ZM33.8439 27.3525C33.6553 27.3533 33.4747 27.4281 33.3408 27.5609L21.122 39.7797C20.8436 40.0437 20.6208 40.3609 20.4669 40.7124C20.313 41.0639 20.231 41.4427 20.2257 41.8264C20.2205 42.2101 20.2921 42.591 20.4363 42.9466C20.5806 43.3021 20.7946 43.6253 21.0657 43.8968C21.3368 44.1684 21.6595 44.383 22.0149 44.5279C22.3702 44.6728 22.751 44.7451 23.1347 44.7405C23.5184 44.7359 23.8973 44.6546 24.2491 44.5013C24.6009 44.348 24.9184 44.1258 25.183 43.8478L37.4017 31.629C37.4691 31.5622 37.5226 31.4827 37.559 31.3952C37.5955 31.3076 37.6143 31.2136 37.6143 31.1187C37.6143 31.0239 37.5955 30.9299 37.559 30.8423C37.5226 30.7547 37.4691 30.6752 37.4017 30.6084L34.3542 27.5609C34.2871 27.4943 34.2074 27.4416 34.1198 27.4058C34.0323 27.3701 33.9385 27.3519 33.8439 27.3525Z" fill="#3D75C3"/>
<path d="M39.4069 54.7081C39.2184 54.7073 39.0377 54.6325 38.9038 54.4997C38.8364 54.4329 38.783 54.3534 38.7465 54.2658C38.71 54.1782 38.6912 54.0843 38.6912 53.9894C38.6912 53.8945 38.71 53.8005 38.7465 53.713C38.783 53.6254 38.8364 53.5459 38.9038 53.4791L43.475 48.9078C44.2842 48.0986 44.7388 47.0011 44.7388 45.8567C44.7388 44.7123 44.2842 43.6148 43.475 42.8056C42.6658 41.9964 41.5683 41.5418 40.4239 41.5418C39.2796 41.5418 38.1821 41.9964 37.3729 42.8056L27.72 52.4656C27.1948 53.0343 26.5602 53.491 25.8542 53.8085C25.1482 54.1259 24.3854 54.2976 23.6114 54.3131C22.8375 54.3286 22.0684 54.1877 21.3502 53.8988C20.6321 53.6099 19.9796 53.179 19.432 52.6319C18.8844 52.0848 18.4529 51.4327 18.1634 50.7148C17.8739 49.9969 17.7323 49.2279 17.7472 48.454C17.762 47.68 17.933 46.9171 18.2498 46.2108C18.5666 45.5045 19.0228 44.8695 19.591 44.3438L20.0941 43.8334C20.1609 43.7661 20.2404 43.7126 20.328 43.6761C20.4156 43.6396 20.5095 43.6208 20.6044 43.6208C20.6993 43.6208 20.7932 43.6396 20.8808 43.6761C20.9684 43.7126 21.0479 43.7661 21.1147 43.8334C21.2486 43.9681 21.3237 44.1503 21.3237 44.3402C21.3237 44.53 21.2486 44.7122 21.1147 44.8469L20.6044 45.3572C20.1807 45.752 19.8409 46.2281 19.6052 46.7571C19.3695 47.2861 19.2427 47.8571 19.2325 48.4362C19.2223 49.0152 19.3288 49.5904 19.5457 50.1274C19.7626 50.6644 20.0854 51.1522 20.4949 51.5617C20.9045 51.9712 21.3922 52.294 21.9292 52.5109C22.4662 52.7278 23.0414 52.8343 23.6204 52.8241C24.1995 52.8139 24.7705 52.6871 25.2995 52.4514C25.8285 52.2157 26.3046 51.8759 26.6994 51.4522L36.3594 41.7922C37.4465 40.7594 38.8941 40.1921 40.3935 40.2113C41.8928 40.2305 43.3254 40.8346 44.3857 41.8949C45.446 42.9553 46.0502 44.3878 46.0694 45.8872C46.0886 47.3866 45.5213 48.8341 44.4885 49.9213L39.9172 54.4997C39.8501 54.5663 39.7704 54.619 39.6828 54.6548C39.5953 54.6905 39.5015 54.7087 39.4069 54.7081Z" fill="#3D75C3"/>
<rect x="1.47998" y="0.5" width="69" height="69" rx="3.5" stroke="#3D75C3" stroke-opacity="0.23"/>
</svg>
