<svg width="71" height="70" viewBox="0 0 71 70" fill="none" xmlns="http://www.w3.org/2000/svg">
<rect x="0.330078" width="70" height="70" rx="4" fill="#F1F8FF"/>
<path d="M23.7044 30.7275L24.6421 33.4011C24.7139 33.6124 24.7104 33.842 24.6323 34.051C24.3255 34.9479 24.2089 35.8989 24.29 36.8433C24.3711 37.7878 24.648 38.7049 25.1033 39.5364L25.4002 40.0762C25.5141 40.2882 25.6855 40.4638 25.8947 40.5829C26.1039 40.7019 26.3424 40.7596 26.5829 40.7493C26.8227 40.7442 27.0564 40.6726 27.2579 40.5424C27.4594 40.4123 27.6208 40.2288 27.7242 40.0123L29.2052 36.8972C29.2371 36.8389 29.2842 36.7903 29.3414 36.7565C29.3986 36.7227 29.4639 36.7048 29.5304 36.7049C29.5968 36.705 29.6621 36.7229 29.7192 36.7569C29.7764 36.7909 29.8233 36.8396 29.8551 36.8979L31.3362 40.0123C31.4395 40.2288 31.6009 40.4123 31.8024 40.5424C32.0039 40.6726 32.2376 40.7442 32.4775 40.7493L32.5154 40.75C32.7492 40.7514 32.979 40.6896 33.1805 40.5711C33.382 40.4526 33.5478 40.2818 33.6602 40.0769L33.9382 39.5701C34.3991 38.7284 34.6797 37.7999 34.762 36.8437C34.8443 35.8876 34.7265 34.9248 34.4161 34.0166C34.3473 33.8171 34.3481 33.6001 34.4182 33.4011L35.356 30.7275C35.5562 30.1698 35.5964 29.5671 35.472 28.9877C35.3476 28.4083 35.0635 27.8753 34.652 27.4489C34.2192 26.9905 33.6684 26.6603 33.0601 26.4947C32.4518 26.3291 31.8096 26.3346 31.2042 26.5105L29.8355 26.8993C29.636 26.9569 29.4243 26.9569 29.2248 26.8993L27.8561 26.5105C27.2508 26.3343 26.6085 26.3286 26.0001 26.4942C25.3917 26.6598 24.8409 26.9902 24.4084 27.4489C23.9968 27.8753 23.7128 28.4083 23.5884 28.9877C23.464 29.5671 23.5042 30.1698 23.7044 30.7275ZM25.4556 28.4344C25.7079 28.168 26.0289 27.9765 26.3831 27.881C26.7373 27.7855 27.1111 27.7898 27.4631 27.8932L28.8318 28.2821C29.2882 28.4126 29.7721 28.4126 30.2286 28.2821L31.5973 27.8932C31.9493 27.7896 32.323 27.7852 32.6773 27.8807C33.0316 27.9762 33.3526 28.1679 33.6047 28.4344C33.8335 28.6703 33.9917 28.9655 34.0615 29.2866C34.1314 29.6078 34.11 29.942 33.9999 30.2516L33.0621 32.9252C32.8858 33.4296 32.884 33.9786 33.0572 34.4841C33.3027 35.2029 33.3957 35.965 33.3303 36.7218C33.2649 37.4785 33.0426 38.2134 32.6775 38.8794L32.5518 39.2205L31.1536 36.281C31.0051 35.977 30.7741 35.7209 30.4872 35.5417C30.2002 35.3625 29.8687 35.2675 29.5304 35.2674C29.192 35.2673 28.8605 35.3622 28.5734 35.5413C28.2864 35.7203 28.0554 35.9764 27.9066 36.2803L26.5373 39.1609L26.3639 38.845C26.0032 38.1845 25.7846 37.4558 25.7221 36.7057C25.6596 35.9557 25.7546 35.2009 26.001 34.4897C26.178 33.983 26.177 33.4312 25.9981 32.9251L25.0604 30.2516C24.9503 29.942 24.9289 29.6077 24.9988 29.2866C25.0686 28.9655 25.2269 28.6703 25.4556 28.4344ZM47.4688 52.25H23.0312C22.8406 52.25 22.6578 52.3257 22.523 52.4605C22.3882 52.5953 22.3125 52.7781 22.3125 52.9688C22.3125 53.1594 22.3882 53.3422 22.523 53.477C22.6578 53.6118 22.8406 53.6875 23.0312 53.6875H47.4688C47.6594 53.6875 47.8422 53.6118 47.977 53.477C48.1118 53.3422 48.1875 53.1594 48.1875 52.9688C48.1875 52.7781 48.1118 52.5953 47.977 52.4605C47.8422 52.3257 47.6594 52.25 47.4688 52.25ZM38.8438 27.8125H43.1562C43.3469 27.8125 43.5297 27.7368 43.6645 27.602C43.7993 27.4672 43.875 27.2844 43.875 27.0938C43.875 26.9031 43.7993 26.7203 43.6645 26.5855C43.5297 26.4507 43.3469 26.375 43.1562 26.375H38.8438C38.6531 26.375 38.4703 26.4507 38.3355 26.5855C38.2007 26.7203 38.125 26.9031 38.125 27.0938C38.125 27.2844 38.2007 27.4672 38.3355 27.602C38.4703 27.7368 38.6531 27.8125 38.8438 27.8125ZM47.4688 47.9375H23.0312C22.8406 47.9375 22.6578 48.0132 22.523 48.148C22.3882 48.2828 22.3125 48.4656 22.3125 48.6562C22.3125 48.8469 22.3882 49.0297 22.523 49.1645C22.6578 49.2993 22.8406 49.375 23.0312 49.375H47.4688C47.6594 49.375 47.8422 49.2993 47.977 49.1645C48.1118 49.0297 48.1875 48.8469 48.1875 48.6562C48.1875 48.4656 48.1118 48.2828 47.977 48.148C47.8422 48.0132 47.6594 47.9375 47.4688 47.9375ZM52.4816 22.6892C52.4777 22.6586 52.4717 22.6282 52.4635 22.5984C52.4352 22.4779 52.3758 22.367 52.2913 22.2766L52.2894 22.2731L47.2585 17.2422L42.2276 12.2106C42.1355 12.1239 42.0218 12.0634 41.8984 12.0356C41.871 12.0283 41.8431 12.0228 41.8149 12.019C41.7836 12.0105 41.7517 12.0041 41.7195 12H21.5938C20.641 12.0011 19.7275 12.3801 19.0538 13.0538C18.3801 13.7275 18.0011 14.641 18 15.5938V54.4062C18.0011 55.359 18.3801 56.2725 19.0538 56.9462C19.7275 57.6199 20.641 57.9989 21.5938 58H48.9062C49.859 57.9989 50.7725 57.6199 51.4462 56.9462C52.1199 56.2725 52.4989 55.359 52.5 54.4062V22.782C52.496 22.7507 52.4898 22.7197 52.4816 22.6892ZM42.4375 14.4538L46.2422 18.2585L50.0456 22.0625H44.5938C44.0221 22.0619 43.474 21.8345 43.0697 21.4303C42.6655 21.026 42.4381 20.4779 42.4375 19.9062V14.4538ZM41.7371 22.0625H24.4688C24.2782 22.0624 24.0954 21.9866 23.9607 21.8518C23.8259 21.7171 23.7501 21.5343 23.75 21.3438V18.4688C23.7501 18.2782 23.8259 18.0954 23.9607 17.9607C24.0954 17.8259 24.2782 17.7501 24.4688 17.75H41V19.9062C41.0027 20.6864 41.2617 21.444 41.7371 22.0625ZM51.0625 54.4062C51.0619 54.9779 50.8345 55.526 50.4303 55.9303C50.026 56.3345 49.4779 56.5619 48.9062 56.5625H21.5938C21.0221 56.5619 20.474 56.3345 20.0697 55.9303C19.6655 55.526 19.4381 54.9779 19.4375 54.4062V15.5938C19.4381 15.0221 19.6655 14.474 20.0697 14.0697C20.474 13.6655 21.0221 13.4381 21.5938 13.4375H41V16.3125H24.4688C23.8971 16.3131 23.349 16.5405 22.9447 16.9447C22.5405 17.349 22.3131 17.8971 22.3125 18.4688V21.3438C22.3131 21.9154 22.5405 22.4635 22.9447 22.8678C23.349 23.272 23.8971 23.4994 24.4688 23.5H51.0625V54.4062ZM38.8438 32.125H47.4688C47.6594 32.125 47.8422 32.0493 47.977 31.9145C48.1118 31.7797 48.1875 31.5969 48.1875 31.4062C48.1875 31.2156 48.1118 31.0328 47.977 30.898C47.8422 30.7632 47.6594 30.6875 47.4688 30.6875H38.8438C38.6531 30.6875 38.4703 30.7632 38.3355 30.898C38.2007 31.0328 38.125 31.2156 38.125 31.4062C38.125 31.5969 38.2007 31.7797 38.3355 31.9145C38.4703 32.0493 38.6531 32.125 38.8438 32.125ZM47.4688 43.625H23.0312C22.8406 43.625 22.6578 43.7007 22.523 43.8355C22.3882 43.9703 22.3125 44.1531 22.3125 44.3438C22.3125 44.5344 22.3882 44.7172 22.523 44.852C22.6578 44.9868 22.8406 45.0625 23.0312 45.0625H47.4688C47.6594 45.0625 47.8422 44.9868 47.977 44.852C48.1118 44.7172 48.1875 44.5344 48.1875 44.3438C48.1875 44.1531 48.1118 43.9703 47.977 43.8355C47.8422 43.7007 47.6594 43.625 47.4688 43.625ZM38.8438 40.75H47.4688C47.6594 40.75 47.8422 40.6743 47.977 40.5395C48.1118 40.4047 48.1875 40.2219 48.1875 40.0312C48.1875 39.8406 48.1118 39.6578 47.977 39.523C47.8422 39.3882 47.6594 39.3125 47.4688 39.3125H38.8438C38.6531 39.3125 38.4703 39.3882 38.3355 39.523C38.2007 39.6578 38.125 39.8406 38.125 40.0312C38.125 40.2219 38.2007 40.4047 38.3355 40.5395C38.4703 40.6743 38.6531 40.75 38.8438 40.75ZM38.8438 36.4375H47.4688C47.6594 36.4375 47.8422 36.3618 47.977 36.227C48.1118 36.0922 48.1875 35.9094 48.1875 35.7188C48.1875 35.5281 48.1118 35.3453 47.977 35.2105C47.8422 35.0757 47.6594 35 47.4688 35H38.8438C38.6531 35 38.4703 35.0757 38.3355 35.2105C38.2007 35.3453 38.125 35.5281 38.125 35.7188C38.125 35.9094 38.2007 36.0922 38.3355 36.227C38.4703 36.3618 38.6531 36.4375 38.8438 36.4375Z" fill="#3D75C3"/>
<rect x="0.830078" y="0.5" width="69" height="69" rx="3.5" stroke="#3D75C3" stroke-opacity="0.23"/>
</svg>
