<svg width="71" height="70" viewBox="0 0 71 70" fill="none" xmlns="http://www.w3.org/2000/svg">
<rect x="0.640137" width="70" height="70" rx="4" fill="#F1F8FF"/>
<g clip-path="url(#clip0_316_154)">
<path d="M56.4736 38.697L54.6879 38.1476V15.6086C54.6877 14.6555 54.309 13.7416 53.6351 13.0677C52.9612 12.3938 52.0472 12.0151 51.0942 12.0148H51.0809L40.0701 12.0569C39.7116 12.0582 39.3538 12.0892 39.0004 12.1496L35.3103 12.7831C34.6228 12.2324 33.7566 11.954 32.877 12.0011C31.9974 12.0482 31.1659 12.4173 30.5411 13.0382C30.4743 13.1049 30.4214 13.1841 30.3852 13.2713C30.3491 13.3585 30.3305 13.452 30.3305 13.5463C30.3305 13.6407 30.3491 13.7342 30.3852 13.8214C30.4214 13.9086 30.4743 13.9878 30.5411 14.0545L34.6065 18.1213C34.6732 18.1881 34.7524 18.241 34.8396 18.2772C34.9268 18.3133 35.0203 18.3319 35.1146 18.3319C35.209 18.3319 35.3025 18.3133 35.3897 18.2772C35.4769 18.241 35.5561 18.1881 35.6228 18.1213C36.1417 17.5994 36.4877 16.9306 36.6138 16.2055C36.7399 15.4804 36.64 14.7341 36.3278 14.0676L39.2453 13.566C39.5199 13.519 39.7979 13.4951 40.0764 13.4944L51.0865 13.4523H51.0942C51.6661 13.4525 52.2144 13.6797 52.6188 14.084C53.0231 14.4884 53.2503 15.0367 53.2505 15.6086V37.7054L40.4765 33.7753C39.711 33.5393 38.9144 33.4196 38.1133 33.4201H33.1255V26.3786H36.7192C36.9098 26.3786 37.0926 26.3029 37.2274 26.1681C37.3622 26.0333 37.4379 25.8505 37.4379 25.6598C37.4379 25.4692 37.3622 25.2864 37.2274 25.1516C37.0926 25.0168 36.9098 24.9411 36.7192 24.9411H28.0942C27.9036 24.9411 27.7208 25.0168 27.586 25.1516C27.4512 25.2864 27.3754 25.4692 27.3754 25.6598C27.3754 25.8505 27.4512 26.0333 27.586 26.1681C27.7208 26.3029 27.9036 26.3786 28.0942 26.3786H31.688V33.4201H25.6839C25.5221 33.4196 25.3649 33.3667 25.2358 33.2692C25.1067 33.1718 25.0127 33.035 24.968 32.8796L20.004 15.5046C19.7898 14.765 19.3417 14.1146 18.7269 13.651C18.112 13.1874 17.3635 12.9355 16.5935 12.933C16.0468 12.933 15.5076 13.0594 15.0178 13.3023C14.5281 13.5452 14.1011 13.898 13.7703 14.3332C13.4394 14.7684 13.2136 15.2741 13.1105 15.811C13.0074 16.3478 13.0298 16.9012 13.1759 17.428L18.9021 38.0401C19.1168 38.807 19.576 39.4828 20.21 39.9648C20.844 40.4467 21.618 40.7085 22.4144 40.7102H27.5078L30.0729 52.2537H26.6567C25.7039 52.2547 24.7904 52.6336 24.1166 53.3074C23.4429 53.9811 23.0639 54.8946 23.0629 55.8474V57.2849C23.0629 57.3793 23.0814 57.4728 23.1175 57.5601C23.1536 57.6473 23.2066 57.7266 23.2733 57.7933C23.3401 57.8601 23.4194 57.913 23.5066 57.9491C23.5938 57.9852 23.6873 58.0038 23.7817 58.0037H42.4692C42.5636 58.0038 42.6571 57.9852 42.7443 57.9491C42.8315 57.913 42.9108 57.8601 42.9776 57.7933C43.0443 57.7266 43.0972 57.6473 43.1333 57.5601C43.1694 57.4728 43.188 57.3793 43.1879 57.2849V55.8474C43.1869 54.8946 42.808 53.9811 42.1343 53.3074C41.4605 52.6336 40.547 52.2547 39.5942 52.2537H36.1779L38.7329 40.7566C39.1804 40.7933 39.6231 40.8756 40.0539 41.0022L54.4051 45.4172C54.7439 45.5226 55.0967 45.5765 55.4516 45.5773C56.2926 45.5739 57.1046 45.2693 57.7404 44.7187C58.3762 44.1682 58.7937 43.408 58.9173 42.5761C59.0409 41.7442 58.8623 40.8955 58.414 40.1839C57.9657 39.4723 57.2773 38.9447 56.4736 38.697ZM35.0283 16.5098L32.1526 13.6334C32.4814 13.4764 32.8446 13.4053 33.2083 13.4267C33.572 13.4481 33.9244 13.5613 34.2325 13.7557C34.5406 13.9502 34.7945 14.2195 34.9703 14.5386C35.1462 14.8577 35.2383 15.2161 35.2382 15.5805C35.2389 15.9021 35.1672 16.2197 35.0283 16.5098ZM41.7504 55.8473V56.5661H24.5004V55.8473C24.5011 55.2757 24.7284 54.7276 25.1327 54.3233C25.5369 53.9191 26.085 53.6917 26.6567 53.6911H39.5942C40.1659 53.6917 40.714 53.9191 41.1182 54.3233C41.5225 54.7276 41.7498 55.2756 41.7504 55.8473ZM34.7054 52.2536H31.5455L28.9905 40.7536H37.2604L34.7054 52.2536ZM56.6743 43.7297C56.4133 43.9241 56.1099 44.0539 55.7891 44.1085C55.4682 44.1632 55.139 44.1411 54.8283 44.0441L40.4765 39.6291C39.7111 39.3925 38.9144 39.2723 38.1132 39.2726H22.4144C21.9321 39.2715 21.4634 39.113 21.0795 38.8211C20.6956 38.5292 20.4176 38.1199 20.2876 37.6555L14.5615 17.0433C14.4745 16.73 14.4611 16.401 14.5223 16.0817C14.5836 15.7624 14.7178 15.4617 14.9146 15.2029C15.1113 14.9441 15.3652 14.7343 15.6565 14.5899C15.9477 14.4455 16.2684 14.3704 16.5935 14.3705C17.0515 14.3718 17.4968 14.5216 17.8624 14.7975C18.228 15.0734 18.4943 15.4605 18.6213 15.9006L23.5859 33.2755C23.7176 33.7306 23.9932 34.1307 24.3714 34.4159C24.7496 34.7012 25.2101 34.8561 25.6839 34.8576H38.1132C38.7709 34.8575 39.4251 34.9554 40.0539 35.1482L56.0503 40.0699C56.4181 40.1831 56.7473 40.3962 57.0012 40.6853C57.2551 40.9745 57.4238 41.3285 57.4884 41.7078C57.5531 42.0871 57.5113 42.477 57.3675 42.8339C57.2238 43.1909 56.9838 43.501 56.6743 43.7297Z" fill="#3D75C3"/>
</g>
<rect x="1.14014" y="0.5" width="69" height="69" rx="3.5" stroke="#3D75C3" stroke-opacity="0.23"/>
<defs>
<clipPath id="clip0_316_154">
<rect width="46" height="46" fill="white" transform="translate(13 12)"/>
</clipPath>
</defs>
</svg>
